<svg width="18" height="16" viewBox="0 0 18 16" fill="none" xmlns="http://www.w3.org/2000/svg">
<path fill-rule="evenodd" clip-rule="evenodd" d="M8.48248 0.332143C8.62196 0.199176 8.80727 0.125 8.99998 0.125C9.19269 0.125 9.378 0.199176 9.51748 0.332143L15.5175 6.04639L17.3925 7.83139C17.5367 7.96864 17.6205 8.15756 17.6254 8.35658C17.6303 8.5556 17.556 8.74843 17.4187 8.89264C17.2815 9.03685 17.0926 9.12064 16.8935 9.12556C16.6945 9.13048 16.5017 9.05614 16.3575 8.91889L15.75 8.33914V14.0001C15.75 14.398 15.5919 14.7795 15.3106 15.0608C15.0293 15.3421 14.6478 15.5001 14.25 15.5001H3.74998C3.35216 15.5001 2.97063 15.3421 2.68932 15.0608C2.40802 14.7795 2.24998 14.398 2.24998 14.0001V8.33914L1.64248 8.91814C1.49847 9.05539 1.30583 9.12981 1.10695 9.12503C0.908068 9.12025 0.719231 9.03665 0.581982 8.89264C0.444732 8.74863 0.370313 8.55599 0.375095 8.35711C0.379877 8.15823 0.463469 7.96939 0.607482 7.83214L2.48248 6.04639L8.48248 0.331393V0.332143ZM3.74998 6.91114V14.0001H6.74998V10.2501C6.74998 9.65341 6.98703 9.08111 7.40899 8.65915C7.83095 8.2372 8.40324 8.00014 8.99998 8.00014C9.59672 8.00014 10.169 8.2372 10.591 8.65915C11.0129 9.08111 11.25 9.65341 11.25 10.2501V14.0001H14.25V6.91114L8.99998 1.91014L3.74998 6.91039V6.91114ZM9.74998 14.0001V10.2501C9.74998 10.0512 9.67096 9.86047 9.53031 9.71981C9.38966 9.57916 9.19889 9.50014 8.99998 9.50014C8.80107 9.50014 8.6103 9.57916 8.46965 9.71981C8.329 9.86047 8.24998 10.0512 8.24998 10.2501V14.0001H9.74998Z" fill="#4D6D9B"/>
</svg>
