<svg width="14" height="12" viewBox="0 0 14 12" fill="none" xmlns="http://www.w3.org/2000/svg">
<path fill-rule="evenodd" clip-rule="evenodd" d="M6.70711 1.70711C7.09763 1.31658 7.09763 0.683417 6.70711 0.292893C6.31658 -0.0976311 5.68342 -0.0976311 5.29289 0.292893L0.292893 5.29289C-0.0976311 5.68342 -0.0976311 6.31658 0.292893 6.70711L5.29289 11.7071C5.68342 12.0976 6.31658 12.0976 6.70711 11.7071C7.09763 11.3166 7.09763 10.6834 6.70711 10.2929L2.41421 6L6.70711 1.70711ZM13.7071 1.70711C14.0976 1.31658 14.0976 0.683417 13.7071 0.292893C13.3166 -0.0976311 12.6834 -0.0976311 12.2929 0.292893L7.29289 5.29289C6.90237 5.68342 6.90237 6.31658 7.29289 6.70711L12.2929 11.7071C12.6834 12.0976 13.3166 12.0976 13.7071 11.7071C14.0976 11.3166 14.0976 10.6834 13.7071 10.2929L9.41421 6L13.7071 1.70711Z" fill="#344054"/>
</svg>
