<svg width="10" height="10" viewBox="0 -5 15 32" fill="red" xmlns="http://www.w3.org/2000/svg">
<path d="M10.2444 22H9.80444C9.00444 22 8.25444 21.69 7.68444 21.12C7.11444 20.55 6.80444 19.8 6.80444 19V18.82C6.80444 18.65 6.75444 18.47 6.67444 18.32C6.58444 18.17 6.46444 18.04 6.30444 17.95L5.87444 17.7C5.57444 17.53 5.18444 17.53 4.87444 17.7L4.69444 17.8C4.03444 18.18 3.22444 18.29 2.45444 18.08C1.69444 17.87 1.02444 17.37 0.634444 16.68L0.404444 16.31C0.00444445 15.61 -0.105556 14.81 0.104444 14.03C0.314444 13.26 0.804444 12.61 1.49444 12.21L1.62444 12.13C1.79444 12.03 1.91444 11.91 2.00444 11.75C2.09444 11.6 2.13444 11.42 2.13444 11.25V10.73C2.13444 10.56 2.08444 10.39 2.00444 10.24C1.93444 10.1 1.80444 9.97 1.65444 9.89L1.45444 9.76C0.804445 9.38 0.314444 8.74 0.104444 7.96C-0.0955556 7.19 0.00444445 6.38 0.404444 5.69L0.624444 5.31C1.01444 4.63 1.68444 4.12 2.44444 3.92C3.21444 3.71 4.02444 3.82 4.71444 4.22L4.83444 4.28C5.20444 4.49 5.56444 4.47 5.87444 4.29L6.30444 4.05C6.45444 3.96 6.58444 3.83 6.67444 3.68C6.75444 3.53 6.80444 3.35 6.80444 3.18V3C6.80444 2.2 7.11444 1.45 7.68444 0.88C8.24444 0.31 9.00444 0 9.80444 0H10.2444C11.0444 0 11.7944 0.31 12.3644 0.88C12.9344 1.45 13.2444 2.2 13.2444 3V3.18C13.2444 3.35 13.2944 3.53 13.3744 3.68C13.4644 3.83 13.5844 3.96 13.7444 4.04L14.1744 4.29C14.4744 4.46 14.8644 4.46 15.1744 4.29L15.3544 4.19C16.0144 3.81 16.8344 3.7 17.6044 3.91C18.3744 4.12 19.0244 4.61 19.4244 5.3L19.6444 5.68C20.0444 6.37 20.1544 7.18 19.9444 7.95C19.7344 8.72 19.2444 9.37 18.5544 9.77L18.4044 9.87C18.2344 9.97 18.1144 10.09 18.0244 10.24C17.9344 10.39 17.8844 10.57 17.8944 10.74V11.24C17.8944 11.42 17.9444 11.59 18.0244 11.75C18.1144 11.9 18.2344 12.03 18.3944 12.12L18.5144 12.18C19.2344 12.6 19.7344 13.25 19.9444 14.02C20.1544 14.79 20.0444 15.6 19.6444 16.29L19.4344 16.67C19.0244 17.37 18.3844 17.87 17.6044 18.07C16.8444 18.27 16.0144 18.16 15.3344 17.77L15.2144 17.71C14.8544 17.5 14.4944 17.52 14.1844 17.69L13.7544 17.94C13.5944 18.03 13.4744 18.16 13.3844 18.31C13.2944 18.46 13.2544 18.63 13.2544 18.81V19C13.2544 19.8 12.9444 20.55 12.3744 21.12C11.7944 21.69 11.0444 22 10.2444 22ZM5.37444 15.57C5.90444 15.57 6.41444 15.71 6.87444 15.97L7.30444 16.22C7.75444 16.48 8.13444 16.86 8.39444 17.31C8.65444 17.77 8.79444 18.28 8.79444 18.81V19C8.79444 19.27 8.89444 19.52 9.08444 19.71C9.28444 19.9 9.53444 20 9.80444 20H10.2444C10.5144 20 10.7644 19.9 10.9544 19.71C11.1444 19.52 11.2444 19.27 11.2444 19V18.82C11.2444 18.3 11.3844 17.78 11.6444 17.32C11.9044 16.86 12.2844 16.49 12.7444 16.22L13.1744 15.97C14.0844 15.44 15.2644 15.44 16.1744 15.97L16.2944 16.03C16.5444 16.18 16.8244 16.21 17.0844 16.14C17.3444 16.07 17.5544 15.91 17.6944 15.68L17.9044 15.3C18.0444 15.06 18.0744 14.79 18.0144 14.53C17.9444 14.28 17.7744 14.05 17.5444 13.92L17.4244 13.86C16.9344 13.58 16.5544 13.2 16.2944 12.74C16.0344 12.28 15.8944 11.76 15.8944 11.24V10.74C15.8944 10.22 16.0344 9.69 16.2944 9.24C16.5544 8.78 16.9344 8.4 17.3944 8.14L17.5344 8.06C17.7744 7.92 17.9344 7.7 18.0044 7.45C18.0744 7.2 18.0344 6.92 17.9044 6.69L17.6844 6.31C17.5544 6.08 17.3344 5.92 17.0744 5.85C16.8244 5.78 16.5444 5.82 16.3144 5.95L16.1344 6.05C15.2844 6.55 14.0744 6.56 13.1644 6.03L12.7344 5.78C12.2844 5.52 11.9044 5.14 11.6444 4.69C11.3844 4.23 11.2444 3.71 11.2444 3.19V3C11.2444 2.74 11.1344 2.48 10.9544 2.29C10.7644 2.11 10.5044 2 10.2444 2H9.80444C9.54444 2 9.28444 2.11 9.09444 2.29C8.91444 2.48 8.80444 2.74 8.80444 3V3.18C8.80444 3.71 8.66444 4.22 8.40444 4.68C8.14444 5.13 7.76444 5.51 7.30444 5.78L6.87444 6.02C5.95444 6.55 4.77444 6.55 3.87444 6.02L3.75444 5.96C3.49444 5.81 3.22444 5.78 2.96444 5.85C2.71444 5.91 2.49444 6.08 2.36444 6.31L2.13444 6.69C2.00444 6.92 1.97444 7.19 2.03444 7.45C2.10444 7.71 2.27444 7.92 2.50444 8.05L2.70444 8.18C3.10444 8.41 3.48444 8.78 3.74444 9.24C4.00444 9.7 4.15444 10.21 4.15444 10.73V11.25C4.15444 11.77 4.02444 12.29 3.75444 12.75C3.49444 13.21 3.11444 13.59 2.65444 13.85L2.52444 13.93C2.27444 14.07 2.11444 14.29 2.04444 14.55C1.97444 14.81 2.01444 15.08 2.14444 15.31L2.36444 15.69C2.49444 15.92 2.71444 16.09 2.97444 16.16C3.23444 16.23 3.50444 16.19 3.73444 16.06L3.91444 15.96C4.32444 15.71 4.84444 15.57 5.37444 15.57Z" fill="#384150"/>
<path d="M10.0234 15C7.81344 15 6.02344 13.21 6.02344 11C6.02344 8.79 7.81344 7 10.0234 7C12.2334 7 14.0234 8.79 14.0234 11C14.0234 13.21 12.2234 15 10.0234 15ZM10.0234 9C8.92344 9 8.02344 9.9 8.02344 11C8.02344 12.1 8.92344 13 10.0234 13C11.1234 13 12.0234 12.1 12.0234 11C12.0234 9.9 11.1234 9 10.0234 9Z" fill="#384150"/>
</svg>
